<svg xmlns="http://www.w3.org/2000/svg" version="1.1" xmlns:xlink="http://www.w3.org/1999/xlink" width="512" height="512" x="0" y="0" viewBox="0 0 512 512" style="enable-background:new 0 0 512 512" xml:space="preserve" class=""><g><path d="M257 16C116.593 16 0 108.378 0 241c0 135.645 117.501 255 247.062 255 14.219 0 20.404-18.01 9.289-26.776-16.486-13.006-30.811-28.657-42.326-46.126C361.277 443.313 512 358.259 512 226c0-118.472-117.102-210-255-210zM143.5 146.885c8.284 0 15 6.716 15 15s-6.716 15-15 15-15-6.716-15-15c0-8.285 6.716-15 15-15zm162.5 149H143.5c-8.284 0-15-6.716-15-15s6.716-15 15-15H306c8.284 0 15 6.716 15 15s-6.716 15-15 15zm62.5 0c-8.284 0-15-6.716-15-15s6.716-15 15-15 15 6.716 15 15-6.716 15-15 15zm0-60h-225c-8.284 0-15-6.716-15-15s6.716-15 15-15h225c8.284 0 15 6.716 15 15s-6.716 15-15 15zm0-60H203c-8.284 0-15-6.716-15-15s6.716-15 15-15h165.5c8.284 0 15 6.716 15 15s-6.716 15-15 15z" fill="#FFFFFF" opacity="1" data-original="#000000" class=""></path></g></svg>