<svg xmlns="http://www.w3.org/2000/svg" version="1.1" xmlns:xlink="http://www.w3.org/1999/xlink" width="64" height="64" x="0" y="0" viewBox="0 0 512 512" style="enable-background:new 0 0 512 512" xml:space="preserve"><defs><linearGradient id="b" x1="74.98" x2="437.02" y1="74.98" y2="437.02" gradientUnits="userSpaceOnUse"><stop offset="0" stop-color="#fe483a"></stop><stop offset="1" stop-color="#d60604"></stop></linearGradient><linearGradient id="a" x1="107.49" x2="419.7" y1="142.12" y2="454.33" gradientUnits="userSpaceOnUse"><stop offset="0" stop-color="#990400"></stop><stop offset="1" stop-color="#990400" stop-opacity="0"></stop></linearGradient><linearGradient id="a" x1="107.49" x2="419.7" y1="142.12" y2="454.33" gradientUnits="userSpaceOnUse"><stop offset="0" stop-color="#990400"></stop><stop offset="1" stop-color="#990400" stop-opacity="0"></stop></linearGradient></defs><g><linearGradient id="b" x1="74.98" x2="437.02" y1="74.98" y2="437.02" gradientUnits="userSpaceOnUse"><stop offset="0" stop-color="#fe483a"></stop><stop offset="1" stop-color="#d60604"></stop></linearGradient><linearGradient id="a" x1="107.49" x2="419.7" y1="142.12" y2="454.33" gradientUnits="userSpaceOnUse"><stop offset="0" stop-color="#990400"></stop><stop offset="1" stop-color="#990400" stop-opacity="0"></stop></linearGradient><linearGradient xlink:href="#a" id="c" x1="289.35" x2="513.35" y1="119.94" y2="343.93"></linearGradient><g data-name="Layer 2"><g data-name="Layer 2 copy 8"><g data-name="20"><circle cx="256" cy="256" r="256" fill="url(&quot;#b&quot;)" opacity="1" data-original="url(#b)"></circle><path fill="url(&quot;#a&quot;)" d="M467.45 400.34a256.84 256.84 0 0 1-111.9 91.58L180.28 316.65l-21.45-23.84-46-68.73-11.37-35.34 2.23-28.39 12.41-26.22 24.9-25.51 17.89-6.78 18.18 8.16z" opacity="1" data-original="url(#a)"></path><path fill="url(&quot;#a&quot;)" d="M510.79 281a254.14 254.14 0 0 1-27.62 93.09L293.81 184.74l-3.29-6.58 7.59-7.72 13.12 2.11L293.7 155l-3.18-6.51 7.71-7.72 12.77 1.58-16.48-16.48-4-6.71 7.64-8 8.1.3 32.47 7.93 32.15 21.76z" opacity="1" data-original="url(#a)"></path><g fill="#FFFFFF"><path d="M291 311.39a14.8 14.8 0 0 0 19.34-1.89c4.71-5 9.12-9.67 13.67-14.19 11.83-11.76 24.68-12.43 36.81-1.1 14.56 13.57 28.52 27.79 42.18 42.21 8.91 9.38 11.19 21.11 2.5 31.18-31.22 36.21-53 55.23-103.13 33.14C219.18 364 155.74 304 112.81 224.08c-23.36-43.46-11.1-85.47 28.18-115.46 12.22-9.33 24.79-9.2 36.08 1.34 12.78 11.92 25.25 24.22 37.15 37 16.06 17.26 15.55 27.68-.89 45.09-19.87 21.06-19.89 21.07-2.09 44 22.42 29 48.91 53.46 79.76 75.34zM306.26 111.43q-4-.3-8.1-.3a7.7 7.7 0 0 0-7.64 7.72v.31a7.74 7.74 0 0 0 7.8 7.71c2.65 0 5.3.11 7.94.35a86.65 86.65 0 0 1 78.52 78.52c.24 2.64.35 5.29.35 7.94a7.74 7.74 0 0 0 7.71 7.8h.31a7.7 7.7 0 0 0 7.72-7.64q0-4.05-.3-8.1a102.38 102.38 0 0 0-94.31-94.31z" fill="#FFFFFF" opacity="1" data-original="#ffffff"></path><path d="M306.26 141.21a74.34 74.34 0 0 0-8-.42 7.72 7.72 0 0 0-7.71 7.72v.3a7.74 7.74 0 0 0 7.81 7.71 58.48 58.48 0 0 1 7.93.54 57.05 57.05 0 0 1 48.68 48.68 58.48 58.48 0 0 1 .54 7.93 7.74 7.74 0 0 0 7.71 7.81h.3a7.72 7.72 0 0 0 7.72-7.71 74.34 74.34 0 0 0-.42-8 72.71 72.71 0 0 0-64.53-64.53z" fill="#FFFFFF" opacity="1" data-original="#ffffff"></path><path d="M306.26 171.16a43.72 43.72 0 0 0-8.15-.72 7.7 7.7 0 0 0-7.59 7.72v.3a7.76 7.76 0 0 0 7.85 7.72 27.83 27.83 0 0 1 7.89 1.14 27.39 27.39 0 0 1 18.42 18.42 27.83 27.83 0 0 1 1.14 7.89 7.76 7.76 0 0 0 7.72 7.85h.3a7.7 7.7 0 0 0 7.72-7.59 43.72 43.72 0 0 0-.72-8.15 43.1 43.1 0 0 0-34.58-34.58z" fill="#FFFFFF" opacity="1" data-original="#ffffff"></path></g></g></g></g></g></svg>